# xmcd
#
# Track frame offsets: 
#        150
#        14235
#        27617
#        39894
#        53677
#        66429
#        78472
#        92020
#        101661
#        113794
#        129630
#        142338
#
# Disc length: 2058 seconds
#
# Revision: 0
# Processed by: cddbd v1.5.1PL0 Copyright (c) Steve Scherf et al.
# Submitted via: ExactAudioCopy v0.95a5
#
DISCID=ad08080c
DTITLE=Various Artist - Gettin' Rowdy Country Club
DYEAR=2005
DGENRE=Country
TTITLE0=Travis Tritt - Country Club
TTITLE1=John Anderson - Black Sheep
TTITLE2=Johnny Lee - Hey Bartender
TTITLE3=Dwight Yoakam - Guitars, Cadillacs
TTITLE4=Clint Black - Killin' Time
TTITLE5=Travis Tritt featuring Marty Stuart - The Whiskey Ain't Workin
TTITLE5='
TTITLE6=David Ball - Look What Followed Me Home
TTITLE7=Waylon Jennings - Theme from The Dukes of Hazzard (Good OL' Bo
TTITLE7=ys)
TTITLE8=Shelly West - Jose Cuervo
TTITLE9=Johnny Lee - Lookin' For Love
TTITLE10=Willie Nelson - Bloody Mary Morning
TTITLE11=Black Oak Arkansas - Jim Dandy
EXTD=
EXTT0=
EXTT1=
EXTT2=
EXTT3=
EXTT4=
EXTT5=
EXTT6=
EXTT7=
EXTT8=
EXTT9=
EXTT10=
EXTT11=
PLAYORDER=
